<svg width="468" height="588" viewBox="0 0 468 588" fill="none" xmlns="http://www.w3.org/2000/svg">
<g filter="url(#filter0_d_101_94)">
<g filter="url(#filter1_i_101_94)">
<path d="M417.083 217.541C417.083 318.909 254.306 521.11 233.541 521.11C212.777 521.11 50 318.909 50 217.541C50 116.174 132.174 34 233.541 34C334.909 34 417.083 116.174 417.083 217.541Z" fill="#5C0C3C"/>
</g>
<path d="M412.083 217.541C412.083 241.759 402.296 272.588 386.798 305.614C371.362 338.508 350.519 373.047 328.973 404.514C307.431 435.974 285.263 464.251 267.236 484.618C258.212 494.813 250.297 502.946 244.066 508.488C240.942 511.267 238.343 513.303 236.313 514.614C235.299 515.268 234.518 515.682 233.956 515.918C233.772 515.996 233.635 516.044 233.541 516.073C233.448 516.044 233.311 515.996 233.127 515.918C232.565 515.682 231.784 515.268 230.77 514.614C228.74 513.303 226.141 511.267 223.016 508.488C216.786 502.946 208.871 494.813 199.847 484.618C181.82 464.251 159.652 435.974 138.11 404.514C116.564 373.047 95.7209 338.508 80.2848 305.614C64.7869 272.588 55 241.759 55 217.541C55 118.936 134.936 39 233.541 39C332.147 39 412.083 118.936 412.083 217.541Z" stroke="#060047" stroke-width="10"/>
<circle cx="233.541" cy="215.541" r="156.535" fill="#E9E9E9"/>
</g>
<path d="M298.766 151.51C295.903 138.736 289.318 127.099 279.843 118.067C270.368 109.035 258.428 103.015 245.532 100.766C228.61 97.4527 211.06 100.72 196.464 109.902C181.868 119.084 171.325 133.488 166.985 150.177C166.272 152.709 166.157 155.372 166.65 157.955C167.142 160.539 168.229 162.972 169.823 165.064C171.448 167.193 173.543 168.918 175.944 170.104C178.346 171.29 180.989 171.904 183.667 171.9C187.528 171.871 191.27 170.557 194.301 168.165C197.333 165.774 199.481 162.441 200.408 158.692C202.597 150.105 208.108 142.738 215.729 138.213C223.349 133.689 232.455 132.377 241.043 134.566C249.631 136.755 256.997 142.266 261.522 149.887C266.047 157.508 267.359 166.613 265.169 175.201C263.307 182.705 258.951 189.354 252.815 194.058C246.68 198.762 239.128 201.243 231.398 201.094C227.143 201.094 223.062 202.785 220.052 205.794C217.043 208.803 215.353 212.884 215.353 217.14V276.572C215.353 278.854 215.802 281.114 216.676 283.222C217.549 285.331 218.829 287.246 220.443 288.86C222.056 290.474 223.972 291.754 226.08 292.627C228.189 293.5 230.449 293.95 232.731 293.95C235.013 293.95 237.272 293.5 239.381 292.627C241.489 291.754 243.405 290.474 245.019 288.86C246.632 287.246 247.912 285.331 248.786 283.222C249.659 281.114 250.109 278.854 250.109 276.572V233.127C267.307 228.58 282.042 217.48 291.158 202.204C300.274 186.927 303.046 168.689 298.882 151.394L298.766 151.51ZM282.605 199.357C278.349 206.009 272.813 211.749 266.32 216.244C259.826 220.739 252.504 223.898 244.779 225.539C243.803 225.738 242.925 226.267 242.292 227.037C241.659 227.807 241.31 228.771 241.304 229.768V276.572C241.304 278.877 240.388 281.087 238.759 282.716C237.129 284.346 234.919 285.261 232.615 285.261C230.31 285.261 228.1 284.346 226.471 282.716C224.841 281.087 223.926 278.877 223.926 276.572V216.85C223.926 214.899 224.701 213.028 226.081 211.648C227.46 210.269 229.331 209.494 231.283 209.494C241.004 209.635 250.485 206.466 258.169 200.509C265.853 194.551 271.283 186.158 273.569 176.707C274.912 170.541 274.861 164.153 273.417 158.009C271.974 151.865 269.176 146.122 265.227 141.199C260.378 135.188 253.965 130.632 246.694 128.03C239.423 125.428 231.575 124.881 224.013 126.449C216.451 128.018 209.469 131.641 203.832 136.921C198.196 142.201 194.125 148.932 192.067 156.375C191.619 158.283 190.552 159.988 189.032 161.225C187.513 162.462 185.626 163.16 183.667 163.211C182.334 163.204 181.019 162.893 179.825 162.3C178.63 161.708 177.586 160.85 176.774 159.793C176.027 158.728 175.535 157.506 175.334 156.22C175.133 154.935 175.229 153.621 175.616 152.378C179.417 137.868 188.595 125.347 201.289 117.355C213.982 109.362 229.24 106.497 243.968 109.339C255.193 111.287 265.587 116.521 273.836 124.378C282.085 132.235 287.818 142.363 290.309 153.479C292.176 161.251 292.456 169.32 291.132 177.203C289.809 185.086 286.908 192.621 282.605 199.357Z" fill="#5C0C3C"/>
<path d="M232.673 308.837C229.236 308.837 225.876 309.856 223.018 311.766C220.16 313.675 217.933 316.389 216.618 319.565C215.302 322.74 214.958 326.234 215.629 329.605C216.299 332.976 217.954 336.072 220.385 338.503C222.815 340.933 225.911 342.588 229.282 343.259C232.653 343.929 236.147 343.585 239.323 342.27C242.498 340.955 245.212 338.727 247.122 335.869C249.031 333.012 250.05 329.652 250.05 326.215C250.05 321.606 248.22 317.186 244.961 313.927C241.702 310.668 237.282 308.837 232.673 308.837ZM232.673 334.788C230.966 334.788 229.297 334.282 227.878 333.333C226.458 332.385 225.352 331.037 224.699 329.46C224.045 327.883 223.874 326.147 224.207 324.473C224.541 322.799 225.363 321.261 226.57 320.054C227.777 318.847 229.315 318.025 230.989 317.692C232.663 317.359 234.398 317.53 235.976 318.183C237.553 318.836 238.901 319.942 239.849 321.362C240.797 322.781 241.304 324.45 241.304 326.157C241.304 328.446 240.394 330.641 238.776 332.26C237.157 333.878 234.962 334.788 232.673 334.788Z" fill="#5C0C3C"/>
<defs>
<filter id="filter0_d_101_94" x="0" y="0" width="467.083" height="587.11" filterUnits="userSpaceOnUse" color-interpolation-filters="sRGB">
<feFlood flood-opacity="0" result="BackgroundImageFix"/>
<feColorMatrix in="SourceAlpha" type="matrix" values="0 0 0 0 0 0 0 0 0 0 0 0 0 0 0 0 0 0 127 0" result="hardAlpha"/>
<feOffset dy="16"/>
<feGaussianBlur stdDeviation="25"/>
<feComposite in2="hardAlpha" operator="out"/>
<feColorMatrix type="matrix" values="0 0 0 0 0 0 0 0 0 0 0 0 0 0 0 0 0 0 0.25 0"/>
<feBlend mode="normal" in2="BackgroundImageFix" result="effect1_dropShadow_101_94"/>
<feBlend mode="normal" in="SourceGraphic" in2="effect1_dropShadow_101_94" result="shape"/>
</filter>
<filter id="filter1_i_101_94" x="50" y="34" width="367.083" height="487.11" filterUnits="userSpaceOnUse" color-interpolation-filters="sRGB">
<feFlood flood-opacity="0" result="BackgroundImageFix"/>
<feBlend mode="normal" in="SourceGraphic" in2="BackgroundImageFix" result="shape"/>
<feColorMatrix in="SourceAlpha" type="matrix" values="0 0 0 0 0 0 0 0 0 0 0 0 0 0 0 0 0 0 127 0" result="hardAlpha"/>
<feOffset/>
<feGaussianBlur stdDeviation="15"/>
<feComposite in2="hardAlpha" operator="arithmetic" k2="-1" k3="1"/>
<feColorMatrix type="matrix" values="0 0 0 0 0 0 0 0 0 0 0 0 0 0 0 0 0 0 0.25 0"/>
<feBlend mode="normal" in2="shape" result="effect1_innerShadow_101_94"/>
</filter>
</defs>
</svg>
