<svg width="468" height="588" viewBox="0 0 468 588" fill="none" xmlns="http://www.w3.org/2000/svg">
<g filter="url(#filter0_d_2_199)">
<g filter="url(#filter1_i_2_199)">
<path d="M417.792 217.542C417.792 318.91 255.014 521.113 234.25 521.113C213.486 521.113 50.7074 318.91 50.7074 217.542C50.7074 116.175 132.882 34 234.25 34C335.618 34 417.792 116.175 417.792 217.542Z" fill="#23890E"/>
</g>
<path d="M412.792 217.542C412.792 241.76 403.005 272.59 387.507 305.616C372.071 338.51 351.229 373.049 329.682 404.516C308.14 435.977 285.972 464.253 267.944 484.621C258.92 494.816 251.006 502.948 244.775 508.491C241.65 511.27 239.052 513.306 237.022 514.616C236.007 515.271 235.227 515.684 234.665 515.921C234.48 515.998 234.343 516.047 234.25 516.076C234.156 516.047 234.019 515.998 233.835 515.921C233.273 515.684 232.493 515.271 231.478 514.616C229.448 513.306 226.85 511.27 223.725 508.491C217.494 502.948 209.579 494.816 200.556 484.621C182.528 464.253 160.36 435.977 138.818 404.516C117.271 373.049 96.4285 338.51 80.9923 305.616C65.4944 272.59 55.7074 241.76 55.7074 217.542C55.7074 118.936 135.644 39 234.25 39C332.856 39 412.792 118.936 412.792 217.542Z" stroke="#060047" stroke-width="10"/>
<circle cx="234.25" cy="215.542" r="156.536" fill="#E9E9E9"/>
</g>
<g filter="url(#filter2_d_2_199)">
<path d="M207.292 284.778C207.292 272.378 197.405 262.494 185.002 262.494C172.598 262.494 162.711 272.378 162.711 284.778C162.711 297.179 172.598 307.063 185.002 307.063C197.405 307.063 207.292 297.179 207.292 284.778ZM173.677 284.778C173.677 278.488 178.71 273.456 185.002 273.456C191.293 273.456 196.327 278.488 196.327 284.778C196.327 291.069 191.293 296.101 185.002 296.101C178.71 296.101 173.677 291.069 173.677 284.778ZM345.528 234.638C340.495 231.223 334.563 228.887 328.81 226.91C310.115 220.261 295.015 205.164 277.039 195.999C246.66 180.543 198.843 183.419 174.216 197.257C161.453 204.446 156.959 217.745 153.364 230.325C155.521 230.684 159.296 232.481 160.195 234.818C161.992 239.49 156.599 244.522 148.87 249.195C148.69 250.093 148.69 250.812 148.51 251.711C147.611 256.923 147.432 260.517 147.611 264.83H139.702V266.268C136.826 265.908 134.129 265.01 132.152 263.752C127.298 261.056 123.883 256.563 121.546 250.992C119.209 245.421 118.31 238.592 118.31 231.942C118.31 228.527 118.49 224.753 119.209 221.519C121.187 208.759 126.759 198.156 134.848 189.889C142.938 181.622 153.543 175.332 165.767 171.198C177.811 167.065 190.215 165.986 202.978 165.268C215.741 164.369 229.043 164.01 242.166 161.134C248.637 159.696 254.03 156.641 257.805 152.148C261.4 147.655 263.377 142.084 263.377 135.974C263.377 133.997 263.198 131.84 262.838 129.684C268.59 126.09 271.287 118.721 269.13 112.072L266.253 103.625L263.737 104.524L260.142 93.561C259.602 91.9435 257.984 91.045 256.367 91.7638C254.749 92.303 253.85 93.9204 254.569 95.5379L258.164 106.501L245.042 110.634L241.446 99.6713C240.907 98.0539 239.289 97.1553 237.672 97.8742C236.054 98.4133 235.155 100.031 235.874 101.648L239.469 112.611L236.952 113.509L239.829 121.956C241.986 128.426 248.277 132.559 254.929 132.38C255.108 133.817 255.288 135.075 255.288 136.154C255.288 140.646 253.85 144.421 251.693 147.296C249.176 150.171 245.581 152.328 240.548 153.586C228.324 156.282 215.561 156.821 202.618 157.36C189.675 158.259 176.373 159.337 163.251 163.65C150.128 168.143 138.264 174.972 129.276 184.317C120.108 193.663 113.816 205.883 111.479 220.261C110.581 224.214 110.221 227.988 110.221 232.122C110.221 242.006 112.198 252.43 117.591 260.697C120.288 264.83 123.703 268.424 128.197 270.761C131.433 272.558 135.388 273.816 139.522 274.355V275.972H149.229C150.488 279.567 152.105 282.622 154.263 285.497V284.958C154.263 268.245 167.745 254.946 184.283 254.946C200.821 254.946 214.482 268.424 214.482 285.138C214.482 288.373 213.943 291.608 213.044 294.483C223.65 293.944 234.436 293.405 245.581 293.405C261.759 293.405 276.32 293.944 287.825 294.843C286.746 291.787 286.207 288.552 286.207 285.138C286.207 268.424 299.689 255.125 316.227 255.125C332.765 255.125 346.247 268.604 346.247 285.138C346.247 289.271 345.348 293.225 344.09 296.64C352.539 291.787 357.752 282.442 358.111 269.143C359.01 256.383 356.493 242.366 345.528 234.638ZM204.056 222.417C196.327 220.979 189.675 219.182 184.822 217.205C181.946 215.947 179.968 214.689 178.35 212.892C177.452 211.814 176.912 210.736 176.912 209.298C176.912 208.938 176.912 208.22 177.092 207.86C177.452 206.602 178.171 205.704 178.89 204.805C179.609 203.906 180.687 203.188 181.946 202.648C184.103 201.211 187.159 200.132 190.754 199.054C196.506 197.437 203.697 195.999 212.145 195.28C212.325 199.414 212.685 205.344 213.943 212.353C214.842 216.666 215.741 220.62 216.999 224.574C212.505 223.855 208.191 223.136 204.056 222.417ZM291.6 225.113C291.06 226.191 290.341 226.91 289.443 227.809C288.903 228.168 288.544 228.348 288.184 228.348L287.106 228.527C286.566 228.707 285.668 228.707 284.589 228.707C282.791 228.887 280.275 228.887 277.399 228.887C265.175 228.887 244.502 227.629 225.268 225.472C223.47 220.44 222.212 215.408 221.134 210.915C219.875 204.086 219.516 198.156 219.336 194.381C221.853 194.202 224.369 194.202 226.706 194.202C259.782 194.202 282.612 207.86 289.802 216.127C291.06 217.565 291.959 219.542 291.959 221.878C292.499 222.777 292.319 224.035 291.6 225.113ZM337.798 249.374C333.484 245.6 329.35 239.85 328.271 234.638C334.922 234.997 346.607 238.412 351.82 253.508C354.156 259.978 341.034 252.25 337.798 249.374ZM316.586 262.314C304.183 262.314 294.296 272.198 294.296 284.599C294.296 296.999 304.183 306.883 316.586 306.883C328.99 306.883 338.877 296.999 338.877 284.599C339.236 272.378 328.99 262.314 316.586 262.314ZM316.586 296.101C310.295 296.101 305.262 291.069 305.262 284.778C305.262 278.488 310.295 273.456 316.586 273.456C322.878 273.456 327.911 278.488 327.911 284.778C327.911 291.069 322.878 296.101 316.586 296.101Z" fill="#5AB647"/>
</g>
<defs>
<filter id="filter0_d_2_199" x="0.707397" y="0" width="467.085" height="587.113" filterUnits="userSpaceOnUse" color-interpolation-filters="sRGB">
<feFlood flood-opacity="0" result="BackgroundImageFix"/>
<feColorMatrix in="SourceAlpha" type="matrix" values="0 0 0 0 0 0 0 0 0 0 0 0 0 0 0 0 0 0 127 0" result="hardAlpha"/>
<feOffset dy="16"/>
<feGaussianBlur stdDeviation="25"/>
<feComposite in2="hardAlpha" operator="out"/>
<feColorMatrix type="matrix" values="0 0 0 0 0 0 0 0 0 0 0 0 0 0 0 0 0 0 0.25 0"/>
<feBlend mode="normal" in2="BackgroundImageFix" result="effect1_dropShadow_2_199"/>
<feBlend mode="normal" in="SourceGraphic" in2="effect1_dropShadow_2_199" result="shape"/>
</filter>
<filter id="filter1_i_2_199" x="50.7074" y="34" width="367.085" height="487.113" filterUnits="userSpaceOnUse" color-interpolation-filters="sRGB">
<feFlood flood-opacity="0" result="BackgroundImageFix"/>
<feBlend mode="normal" in="SourceGraphic" in2="BackgroundImageFix" result="shape"/>
<feColorMatrix in="SourceAlpha" type="matrix" values="0 0 0 0 0 0 0 0 0 0 0 0 0 0 0 0 0 0 127 0" result="hardAlpha"/>
<feOffset/>
<feGaussianBlur stdDeviation="15"/>
<feComposite in2="hardAlpha" operator="arithmetic" k2="-1" k3="1"/>
<feColorMatrix type="matrix" values="0 0 0 0 0 0 0 0 0 0 0 0 0 0 0 0 0 0 0.25 0"/>
<feBlend mode="normal" in2="shape" result="effect1_innerShadow_2_199"/>
</filter>
<filter id="filter2_d_2_199" x="106.221" y="91.5133" width="256.057" height="223.55" filterUnits="userSpaceOnUse" color-interpolation-filters="sRGB">
<feFlood flood-opacity="0" result="BackgroundImageFix"/>
<feColorMatrix in="SourceAlpha" type="matrix" values="0 0 0 0 0 0 0 0 0 0 0 0 0 0 0 0 0 0 127 0" result="hardAlpha"/>
<feOffset dy="4"/>
<feGaussianBlur stdDeviation="2"/>
<feComposite in2="hardAlpha" operator="out"/>
<feColorMatrix type="matrix" values="0 0 0 0 0 0 0 0 0 0 0 0 0 0 0 0 0 0 0.25 0"/>
<feBlend mode="normal" in2="BackgroundImageFix" result="effect1_dropShadow_2_199"/>
<feBlend mode="normal" in="SourceGraphic" in2="effect1_dropShadow_2_199" result="shape"/>
</filter>
</defs>
</svg>
