<svg width="468" height="588" viewBox="0 0 468 588" fill="none" xmlns="http://www.w3.org/2000/svg">
<g filter="url(#filter0_d_2_186)">
<g filter="url(#filter1_i_2_186)">
<path d="M417.085 217.542C417.085 318.91 254.307 521.113 233.543 521.113C212.778 521.113 50 318.91 50 217.542C50 116.175 132.175 34 233.543 34C334.91 34 417.085 116.175 417.085 217.542Z" fill="#183667"/>
</g>
<path d="M412.085 217.542C412.085 241.76 402.298 272.59 386.8 305.616C371.364 338.51 350.521 373.049 328.975 404.516C307.432 435.977 285.264 464.253 267.237 484.621C258.213 494.816 250.298 502.948 244.068 508.491C240.943 511.27 238.344 513.306 236.314 514.616C235.3 515.271 234.519 515.684 233.957 515.921C233.773 515.998 233.636 516.047 233.542 516.076C233.449 516.047 233.312 515.998 233.128 515.921C232.566 515.684 231.785 515.271 230.771 514.616C228.741 513.306 226.142 511.27 223.017 508.491C216.787 502.948 208.872 494.816 199.848 484.621C181.821 464.253 159.653 435.977 138.11 404.516C116.564 373.049 95.7211 338.51 80.2849 305.616C64.787 272.59 55 241.76 55 217.542C55 118.936 134.936 39 233.542 39C332.149 39 412.085 118.936 412.085 217.542Z" stroke="#060047" stroke-width="10"/>
<circle cx="233.542" cy="215.542" r="156.536" fill="#E9E9E9"/>
<g filter="url(#filter2_d_2_186)">
<path d="M236.633 199.876C283.56 172.421 299.963 129.732 300.637 127.937L305.655 114.519H275.368L272.869 120.72C272.869 120.839 268.169 132.204 253.035 149.93C242.841 161.375 230.765 170.973 217.334 178.303L198.056 188.132L232.468 202.369L236.633 199.876Z" fill="#843494"/>
<path d="M159.586 227.865C162.008 227.686 220.185 224.494 266.587 279.416C275.272 290.609 282.355 302.955 287.634 316.097H317.913C307.291 281.066 285.017 250.703 254.773 230.026C226.804 210 193.187 199.363 158.772 199.65L149.023 199.769V228.499L159.586 227.865Z" fill="#183667"/>
</g>
</g>
<defs>
<filter id="filter0_d_2_186" x="0" y="0" width="467.085" height="587.113" filterUnits="userSpaceOnUse" color-interpolation-filters="sRGB">
<feFlood flood-opacity="0" result="BackgroundImageFix"/>
<feColorMatrix in="SourceAlpha" type="matrix" values="0 0 0 0 0 0 0 0 0 0 0 0 0 0 0 0 0 0 127 0" result="hardAlpha"/>
<feOffset dy="16"/>
<feGaussianBlur stdDeviation="25"/>
<feComposite in2="hardAlpha" operator="out"/>
<feColorMatrix type="matrix" values="0 0 0 0 0 0 0 0 0 0 0 0 0 0 0 0 0 0 0.25 0"/>
<feBlend mode="normal" in2="BackgroundImageFix" result="effect1_dropShadow_2_186"/>
<feBlend mode="normal" in="SourceGraphic" in2="effect1_dropShadow_2_186" result="shape"/>
</filter>
<filter id="filter1_i_2_186" x="50" y="34" width="367.085" height="487.113" filterUnits="userSpaceOnUse" color-interpolation-filters="sRGB">
<feFlood flood-opacity="0" result="BackgroundImageFix"/>
<feBlend mode="normal" in="SourceGraphic" in2="BackgroundImageFix" result="shape"/>
<feColorMatrix in="SourceAlpha" type="matrix" values="0 0 0 0 0 0 0 0 0 0 0 0 0 0 0 0 0 0 127 0" result="hardAlpha"/>
<feOffset/>
<feGaussianBlur stdDeviation="15"/>
<feComposite in2="hardAlpha" operator="arithmetic" k2="-1" k3="1"/>
<feColorMatrix type="matrix" values="0 0 0 0 0 0 0 0 0 0 0 0 0 0 0 0 0 0 0.25 0"/>
<feBlend mode="normal" in2="shape" result="effect1_innerShadow_2_186"/>
</filter>
<filter id="filter2_d_2_186" x="145.023" y="114.519" width="176.89" height="209.578" filterUnits="userSpaceOnUse" color-interpolation-filters="sRGB">
<feFlood flood-opacity="0" result="BackgroundImageFix"/>
<feColorMatrix in="SourceAlpha" type="matrix" values="0 0 0 0 0 0 0 0 0 0 0 0 0 0 0 0 0 0 127 0" result="hardAlpha"/>
<feOffset dy="4"/>
<feGaussianBlur stdDeviation="2"/>
<feComposite in2="hardAlpha" operator="out"/>
<feColorMatrix type="matrix" values="0 0 0 0 0 0 0 0 0 0 0 0 0 0 0 0 0 0 0.25 0"/>
<feBlend mode="normal" in2="BackgroundImageFix" result="effect1_dropShadow_2_186"/>
<feBlend mode="normal" in="SourceGraphic" in2="effect1_dropShadow_2_186" result="shape"/>
</filter>
</defs>
</svg>
