<svg width="468" height="588" viewBox="0 0 468 588" fill="none" xmlns="http://www.w3.org/2000/svg">
<g filter="url(#filter0_d_2_213)">
<g filter="url(#filter1_i_2_213)">
<path d="M418 218.043C418 319.41 255.222 521.613 234.458 521.613C213.693 521.613 50.915 319.41 50.915 218.043C50.915 116.675 133.09 34.5001 234.458 34.5001C335.825 34.5001 418 116.675 418 218.043Z" fill="#128CB9"/>
</g>
<path d="M413 218.043C413 242.26 403.213 273.09 387.715 306.116C372.279 339.01 351.436 373.549 329.89 405.016C308.347 436.477 286.179 464.753 268.152 485.121C259.128 495.316 251.213 503.448 244.983 508.991C241.858 511.77 239.259 513.806 237.229 515.116C236.215 515.771 235.434 516.184 234.872 516.421C234.688 516.498 234.551 516.547 234.458 516.576C234.364 516.547 234.227 516.498 234.043 516.421C233.481 516.184 232.7 515.771 231.686 515.116C229.656 513.806 227.057 511.77 223.932 508.991C217.702 503.448 209.787 495.316 200.763 485.121C182.736 464.753 160.568 436.477 139.025 405.016C117.479 373.549 96.6361 339.01 81.2 306.116C65.702 273.09 55.915 242.26 55.915 218.043C55.915 119.436 135.851 39.5001 234.458 39.5001C333.064 39.5001 413 119.436 413 218.043Z" stroke="#060047" stroke-width="10"/>
<circle cx="234.458" cy="216.042" r="156.536" fill="#E9E9E9"/>
</g>
<path d="M195.537 280.646C196.952 285.127 198.69 289.563 200.49 293.147C202.613 298.337 204.265 301.403 206.152 304.941L208.045 307.782C212.366 311.617 215.401 315.891 221.048 318.079C225.353 319.747 229.514 319.566 234.051 319.566C247.086 319.566 257.844 316.217 263.656 303.312C264.748 300.888 266.044 298.421 267.245 295.27C268.503 291.968 271.019 286.071 272.906 281.825C274.322 278.287 276.146 274.171 277.33 271.211C280.38 263.587 283.557 255.935 286.935 248.456C299.16 221.383 310.044 193.678 321.77 166.374C326.765 154.742 334.542 141.011 328.568 128.178C322.457 115.051 306.098 107.017 292.158 113.31C284.871 116.599 280.345 122.011 276.855 128.991C275.255 132.191 273.801 132.91 271.491 140.06C269.319 143.525 267.237 149.663 265.735 153.199C261.488 163.197 254.155 173.615 251.93 184.254L275.498 180.19L264.442 205.383L246.1 247.237L234.051 274.868H233.645L235.27 208.634C227.92 210.911 220.304 215.306 212.921 218.386L209.959 206.602L208.451 202.133C207.803 199.502 207.771 197.824 207.358 195.631C206.38 190.436 205.067 185.344 203.826 180.206C200.498 166.431 197.821 152.468 194.236 138.743C192.674 132.767 192.395 126.654 188.35 121.677C177.204 107.96 156.103 108.4 144.866 121.713C134.543 133.943 140.083 148.363 145.59 161.092C157.963 189.688 169.054 218.994 182.196 247.237C185.695 254.755 188.811 262.751 191.763 270.503C192.487 273.437 194.643 277.815 195.537 280.646Z" fill="#169FD1"/>
<path d="M273.467 184.253V185.473H273.873L273.467 184.253Z" fill="#98B8DE"/>
<path d="M234.864 211.479V213.104H235.27L234.864 211.479Z" fill="#98B8DE"/>
<path d="M234.457 226.92V228.545H234.864L234.457 226.92Z" fill="#98B8DE"/>
<path d="M234.051 242.361V243.986H234.457L234.051 242.361Z" fill="#98B8DE"/>
<path d="M233.645 272.43V274.056H234.051L233.645 272.43Z" fill="#98B8DE"/>
<defs>
<filter id="filter0_d_2_213" x="0.915039" y="0.500122" width="467.085" height="587.113" filterUnits="userSpaceOnUse" color-interpolation-filters="sRGB">
<feFlood flood-opacity="0" result="BackgroundImageFix"/>
<feColorMatrix in="SourceAlpha" type="matrix" values="0 0 0 0 0 0 0 0 0 0 0 0 0 0 0 0 0 0 127 0" result="hardAlpha"/>
<feOffset dy="16"/>
<feGaussianBlur stdDeviation="25"/>
<feComposite in2="hardAlpha" operator="out"/>
<feColorMatrix type="matrix" values="0 0 0 0 0 0 0 0 0 0 0 0 0 0 0 0 0 0 0.25 0"/>
<feBlend mode="normal" in2="BackgroundImageFix" result="effect1_dropShadow_2_213"/>
<feBlend mode="normal" in="SourceGraphic" in2="effect1_dropShadow_2_213" result="shape"/>
</filter>
<filter id="filter1_i_2_213" x="50.915" y="34.5001" width="367.085" height="487.113" filterUnits="userSpaceOnUse" color-interpolation-filters="sRGB">
<feFlood flood-opacity="0" result="BackgroundImageFix"/>
<feBlend mode="normal" in="SourceGraphic" in2="BackgroundImageFix" result="shape"/>
<feColorMatrix in="SourceAlpha" type="matrix" values="0 0 0 0 0 0 0 0 0 0 0 0 0 0 0 0 0 0 127 0" result="hardAlpha"/>
<feOffset/>
<feGaussianBlur stdDeviation="15"/>
<feComposite in2="hardAlpha" operator="arithmetic" k2="-1" k3="1"/>
<feColorMatrix type="matrix" values="0 0 0 0 0 0 0 0 0 0 0 0 0 0 0 0 0 0 0.25 0"/>
<feBlend mode="normal" in2="shape" result="effect1_innerShadow_2_213"/>
</filter>
</defs>
</svg>
